PathFileType	4	(X/Y/Z)	E:\Marcel_BSc\Marcel\30_01_2025\static_00.trc
DataRate	CameraRate	NumFrames	NumMarkers	Units	OrigDataRate	OrigDataStartFrame	OrigNumFrames
200.0	200.0	4	59	mm	200.0	99	158	
Frame#	Time	FHD			LBHD			RBHD			RBAR			LBAR			RASI			RSACR			LSACR			LASI			USACR			C7			CLAV			T10			RSHO			LSHO			LTHI1			LTHI3			LTHI2			LLFC			LMFC			LTIB1			LTIB2			LTIB3			LMMAL			LLMAL			LHEE			LMT1			LMT5			LMT3			RTHI1			RTHI2			RTHI3			RLFC			RMFC			RTIB1			RTIB3			RTIB2			RLMAL			RMMAL			RHEE			RMT5			RMT1			RMT3			LMEP			LLEP			LDUPA			LMUPA			LUUPA			LUL			LRAD			LRFIN			RUL			RRAD			RUFIN			RMEP			RLEP			RMUPA			RDUPA			RUUPA			
		X1	Y1	Z1	X2	Y2	Z2	X3	Y3	Z3	X4	Y4	Z4	X5	Y5	Z5	X6	Y6	Z6	X7	Y7	Z7	X8	Y8	Z8	X9	Y9	Z9	X10	Y10	Z10	X11	Y11	Z11	X12	Y12	Z12	X13	Y13	Z13	X14	Y14	Z14	X15	Y15	Z15	X16	Y16	Z16	X17	Y17	Z17	X18	Y18	Z18	X19	Y19	Z19	X20	Y20	Z20	X21	Y21	Z21	X22	Y22	Z22	X23	Y23	Z23	X24	Y24	Z24	X25	Y25	Z25	X26	Y26	Z26	X27	Y27	Z27	X28	Y28	Z28	X29	Y29	Z29	X30	Y30	Z30	X31	Y31	Z31	X32	Y32	Z32	X33	Y33	Z33	X34	Y34	Z34	X35	Y35	Z35	X36	Y36	Z36	X37	Y37	Z37	X38	Y38	Z38	X39	Y39	Z39	X40	Y40	Z40	X41	Y41	Z41	X42	Y42	Z42	X43	Y43	Z43	X44	Y44	Z44	X45	Y45	Z45	X46	Y46	Z46	X47	Y47	Z47	X48	Y48	Z48	X49	Y49	Z49	X50	Y50	Z50	X51	Y51	Z51	X52	Y52	Z52	X53	Y53	Z53	X54	Y54	Z54	X55	Y55	Z55	X56	Y56	Z56	X57	Y57	Z57	X58	Y58	Z58	X59	Y59	Z59	
99	0.485	101.98647	1817.5421	-581.14618	134.45561	1803.1755	-522.73218	130.6362	1801.2743	-651.93085	1237.7557	37.499237	-1766.9926	1247.9908	32.423523	457.98206	101.62168	1048.3315	-723.77563	310.52411	1098.0806	-621.34265	306.37244	1095.1987	-557.43408	95.96257	1038.7766	-458.7601	302.17297	1111.9723	-589.30334	278.97092	1567.205	-583.74695	116.67472	1531.5203	-585.02673	282.32867	1257.5789	-577.56354	239.89941	1605.2798	-734.46533	223.62088	1595.7004	-417.51434	228.83217	706.98431	-410.08823	258.34827	651.23975	-428.68723	211.33014	643.8064	-408.01315	221.76131	524.76788	-415.21091	174.91882	506.36536	-517.14673	222.46393	276.37991	-400.13367	269.63885	274.89404	-381.01962	242.95503	214.26595	-391.85168	268.1059	92.394066	-468.11115	287.0972	83.670753	-380.57211	343.99252	39.009747	-422.31165	115.27325	41.425869	-434.41626	145.15425	26.119188	-352.03259	122.68698	36.070793	-388.9418	208.11642	674.7807	-793.26471	255.20512	671.00879	-773.90308	226.55206	613.15112	-781.84491	203.44011	529.39813	-778.36987	179.69014	508.73785	-682.0592	260.01208	277.72977	-811.53375	291.59708	219.53371	-814.01971	240.80838	214.44522	-809.94794	292.82535	75.438553	-813.68768	245.16884	71.116989	-736.39478	340.13992	30.561167	-765.2699	173.11319	26.132856	-862.67987	109.42835	42.55418	-788.44049	134.10345	40.151772	-828.99475	161.26947	1470.2207	-114.69096	234.08046	1509.6083	-116.29153	259.95218	1524.0413	-217.49623	227.17523	1561.8622	-219.37305	236.11266	1565.746	-281.5271	171.00746	1563.5748	167.20688	141.56087	1628.4266	136.2092	167.95241	1657.6675	235.57961	216.31558	1590.88	-1342.0127	195.28343	1657.8708	-1308.7037	226.12921	1680.5459	-1395.2583	178.62419	1483.9645	-1045.4382	247.84401	1539.3455	-1057.8622	246.59297	1577.3899	-910.60559	254.48802	1564.5726	-970.89191	281.44635	1542.4052	-899.08417
100	0.49	101.95863	1817.5453	-581.1958	134.42378	1803.177	-522.77521	130.60645	1801.2585	-651.96741	1237.7566	37.497448	-1766.9856	1247.9469	32.324688	457.96896	101.90405	1048.5135	-724.35535	310.56564	1098.0822	-621.35773	306.418	1095.1704	-557.43585	96.004852	1038.7891	-458.75644	302.20007	1111.9651	-589.31415	278.97916	1567.2101	-583.76019	116.67293	1531.5228	-585.04901	282.36462	1257.5923	-577.5755	239.91055	1605.2708	-734.47015	223.62616	1595.7034	-417.52301	228.84258	706.99109	-410.07959	258.35889	651.23468	-428.6813	211.33513	643.81567	-408.00345	221.75964	524.77374	-415.20505	174.92303	506.37109	-517.14587	222.47954	276.37448	-400.13068	269.64438	274.89175	-381.01831	243.06825	214.26823	-391.8924	268.06125	92.459419	-468.0954	287.09937	83.672035	-380.58011	343.94104	38.985695	-422.35806	115.26767	41.429821	-434.41644	145.1532	26.124781	-352.03119	122.68574	36.080151	-388.944	208.37491	674.9859	-793.01093	255.23701	671.00494	-773.87054	226.5226	613.07471	-781.8924	203.43256	529.40442	-778.37231	179.69963	508.74017	-682.05353	260.00787	277.74234	-811.5332	291.57648	219.53001	-814.01245	240.80841	214.44107	-809.9455	292.82956	75.444557	-813.67749	245.17325	71.12326	-736.38947	339.91571	30.519934	-765.12494	173.11064	26.13949	-862.67383	109.43026	42.560707	-788.42157	134.10907	40.159912	-828.98242	161.30879	1470.2162	-114.68585	234.08171	1509.6284	-116.30608	259.96698	1524.075	-217.49916	227.20677	1561.6649	-219.82791	236.07919	1565.6748	-281.56363	171.05479	1563.5968	167.19989	141.57901	1628.4385	136.19977	167.96559	1657.6946	235.57745	216.30545	1590.882	-1342.0199	195.27225	1657.8727	-1308.7101	226.09546	1680.5516	-1395.2666	178.62169	1483.9553	-1045.4684	247.9077	1539.3054	-1057.8483	246.61638	1577.3832	-910.60724	254.52277	1564.5597	-970.88361	281.47119	1542.4003	-899.08569
101	0.495	101.93832	1817.5428	-581.24243	134.40535	1803.179	-522.80878	130.5775	1801.248	-652.01007	1237.7622	37.496655	-1766.9812	1247.9995	32.437077	457.98135	101.6498	1048.3462	-723.73108	310.58481	1098.061	-621.37762	306.44193	1095.1736	-557.43884	96.037903	1038.8015	-458.7413	302.23523	1111.9561	-589.3139	278.98926	1567.2192	-583.76855	116.68038	1531.5352	-585.0589	282.3978	1257.6005	-577.58459	239.89062	1605.2629	-734.48114	223.63672	1595.7135	-417.52161	228.84792	706.99091	-410.07422	258.3949	651.23969	-428.66583	211.32809	643.80994	-407.99655	221.76073	524.7699	-415.19763	174.92273	506.35297	-517.13403	222.47441	276.37115	-400.11966	269.64182	274.89075	-381.02338	242.95697	214.26749	-391.85306	268.10767	92.403381	-468.11166	287.10034	83.669067	-380.57956	343.94592	38.97353	-422.37167	115.27333	41.425072	-434.40701	145.15958	26.12986	-352.03064	122.67999	36.078205	-388.93884	208.12932	674.81696	-793.23627	255.23952	671.00903	-773.87817	226.51898	613.25092	-781.83429	203.42522	529.39496	-778.38086	179.69707	508.73965	-682.05048	260.00632	277.73337	-811.52423	291.61536	219.5043	-814.01019	240.81244	214.44852	-809.93817	292.8248	75.446129	-813.68182	245.17343	71.117455	-736.38983	339.90002	30.514002	-765.11005	173.1095	26.129677	-862.68494	109.43103	42.555923	-788.42596	134.09219	40.167061	-828.98114	161.30612	1470.235	-114.6895	234.10349	1509.6259	-116.30709	259.979	1524.0909	-217.49005	227.21159	1561.6654	-219.87321	236.09326	1565.6952	-281.56918	171.06212	1563.6052	167.18448	141.61182	1628.4469	136.20438	167.80139	1657.6012	235.73744	216.30968	1590.8777	-1342.0378	195.26085	1657.8604	-1308.7225	226.05339	1680.5664	-1395.2915	178.68878	1483.9564	-1045.4542	247.93593	1539.3087	-1057.8561	246.64609	1577.3668	-910.6051	254.54199	1564.5398	-970.87823	281.48587	1542.3845	-899.08405
102	0.5	101.92121	1817.5447	-581.28021	134.39555	1803.1886	-522.84839	130.56104	1801.2393	-652.03992	1237.7595	37.504913	-1766.9813	1248.0319	32.284611	457.81363	101.93442	1048.521	-724.3172	310.61737	1098.053	-621.36719	306.49265	1095.1599	-557.43347	96.072945	1038.8146	-458.74066	302.25653	1111.9529	-589.33148	278.98853	1567.2151	-583.77899	116.68826	1531.5432	-585.06744	282.40607	1257.6083	-577.61041	239.87566	1605.2616	-734.49139	223.65329	1595.7098	-417.53262	228.86394	706.99109	-410.07135	258.38187	651.24908	-428.66736	211.33591	643.81531	-407.98648	221.75526	524.76801	-415.19171	174.92729	506.35248	-517.12134	222.47356	276.35901	-400.1192	269.64554	274.88989	-381.01172	242.9485	214.25893	-391.85211	268.11023	92.41378	-468.1077	287.10196	83.671692	-380.58038	343.96219	39.021408	-422.31845	115.26879	41.428513	-434.41104	145.16348	26.126732	-352.03058	122.68307	36.077106	-388.93445	208.36414	674.9754	-793.01105	255.23412	671.01813	-773.90222	226.57336	613.11285	-781.84509	203.43155	529.40424	-778.36108	179.68744	508.74149	-682.04022	259.98889	277.73431	-811.53973	291.58853	219.51572	-814.01666	240.80217	214.44783	-809.93732	292.81522	75.446808	-813.68335	245.16862	71.120117	-736.38733	340.14136	30.563543	-765.2757	173.1039	26.139662	-862.67877	109.43295	42.552364	-788.43268	134.11897	40.169224	-828.96527	161.18974	1470.4379	-114.72993	234.1006	1509.6348	-116.319	259.98834	1524.1038	-217.48436	227.2334	1561.6743	-219.85767	235.98582	1565.6622	-281.30869	171.08191	1563.6165	167.18697	141.61607	1628.4626	136.20265	168.01175	1657.7198	235.58536	216.31898	1590.887	-1342.0586	195.25391	1657.8562	-1308.7306	226.03935	1680.5721	-1395.2904	178.69978	1483.9397	-1045.4813	247.88898	1539.3469	-1057.9037	246.65788	1577.3634	-910.60687	254.5742	1564.5471	-970.88165	281.4985	1542.3823	-899.08331
